<?xml version="1.0" encoding="us-ascii" standalone="no"?><svg xmlns="http://www.w3.org/2000/svg" xmlns:xlink="http://www.w3.org/1999/xlink" contentStyleType="text/css" height="415px" preserveAspectRatio="none" style="width:522px;height:415px;background:#FFFFFF;" version="1.1" viewBox="0 0 522 415" width="522px" zoomAndPan="magnify"><defs/><g><!--class Project--><g id="elem_Project"><rect codeLine="1" fill="#F1F1F1" height="105.1875" id="Project" rx="2.5" ry="2.5" style="stroke:#181818;stroke-width:0.5;" width="104" x="9" y="188"/><ellipse cx="34.8" cy="204" fill="#ADD1B2" rx="11" ry="11" style="stroke:#181818;stroke-width:1.0;"/><path d="M37.7688,209.6406 Q37.1906,209.9375 36.55,210.0781 Q35.9094,210.2344 35.2063,210.2344 Q32.7063,210.2344 31.3781,208.5938 Q30.0656,206.9375 30.0656,203.8125 Q30.0656,200.6875 31.3781,199.0313 Q32.7063,197.375 35.2063,197.375 Q35.9094,197.375 36.55,197.5313 Q37.2063,197.6875 37.7688,197.9844 L37.7688,200.7031 Q37.1438,200.125 36.55,199.8594 Q35.9563,199.5781 35.3313,199.5781 Q33.9875,199.5781 33.3,200.6563 Q32.6125,201.7188 32.6125,203.8125 Q32.6125,205.9063 33.3,206.9844 Q33.9875,208.0469 35.3313,208.0469 Q35.9563,208.0469 36.55,207.7813 Q37.1438,207.5 37.7688,206.9219 L37.7688,209.6406 Z " fill="#000000"/><text fill="#000000" font-family="sans-serif" font-size="14" lengthAdjust="spacing" textLength="48" x="51.2" y="208.8467">Project</text><line style="stroke:#181818;stroke-width:0.5;" x1="10" x2="112" y1="220" y2="220"/><polygon fill="none" points="20,229.6484,16,235.6484,24,235.6484" style="stroke:#1963A0;stroke-width:1.0;"/><text fill="#000000" font-family="sans-serif" font-size="14" lengthAdjust="spacing" textLength="12" x="29" y="236.9951">id</text><ellipse cx="20" cy="249.9453" fill="#000000" rx="3" ry="3" style="stroke:#000000;stroke-width:1.0;"/><text fill="#000000" font-family="sans-serif" font-size="14" lengthAdjust="spacing" textLength="39" x="29" y="253.292">name</text><ellipse cx="20" cy="266.2422" fill="#000000" rx="3" ry="3" style="stroke:#000000;stroke-width:1.0;"/><text fill="#000000" font-family="sans-serif" font-size="14" lengthAdjust="spacing" textLength="73" x="29" y="269.5889">created_at</text><ellipse cx="20" cy="282.5391" fill="#000000" rx="3" ry="3" style="stroke:#000000;stroke-width:1.0;"/><text fill="#000000" font-family="sans-serif" font-size="14" lengthAdjust="spacing" textLength="78" x="29" y="285.8857">updated_at</text></g><!--class Page--><g id="elem_Page"><rect codeLine="7" fill="#F1F1F1" height="105.1875" id="Page" rx="2.5" ry="2.5" style="stroke:#181818;stroke-width:0.5;" width="104" x="210" y="23"/><ellipse cx="241.65" cy="39" fill="#ADD1B2" rx="11" ry="11" style="stroke:#181818;stroke-width:1.0;"/><path d="M244.6188,44.6406 Q244.0406,44.9375 243.4,45.0781 Q242.7594,45.2344 242.0563,45.2344 Q239.5563,45.2344 238.2281,43.5938 Q236.9156,41.9375 236.9156,38.8125 Q236.9156,35.6875 238.2281,34.0313 Q239.5563,32.375 242.0563,32.375 Q242.7594,32.375 243.4,32.5313 Q244.0563,32.6875 244.6188,32.9844 L244.6188,35.7031 Q243.9938,35.125 243.4,34.8594 Q242.8063,34.5781 242.1813,34.5781 Q240.8375,34.5781 240.15,35.6563 Q239.4625,36.7188 239.4625,38.8125 Q239.4625,40.9063 240.15,41.9844 Q240.8375,43.0469 242.1813,43.0469 Q242.8063,43.0469 243.4,42.7813 Q243.9938,42.5 244.6188,41.9219 L244.6188,44.6406 Z " fill="#000000"/><text fill="#000000" font-family="sans-serif" font-size="14" lengthAdjust="spacing" textLength="35" x="259.35" y="43.8467">Page</text><line style="stroke:#181818;stroke-width:0.5;" x1="211" x2="313" y1="55" y2="55"/><polygon fill="none" points="221,64.6484,217,70.6484,225,70.6484" style="stroke:#1963A0;stroke-width:1.0;"/><text fill="#000000" font-family="sans-serif" font-size="14" lengthAdjust="spacing" textLength="12" x="230" y="71.9951">id</text><ellipse cx="221" cy="84.9453" fill="none" rx="3" ry="3" style="stroke:#038048;stroke-width:1.0;"/><text fill="#000000" font-family="sans-serif" font-size="14" lengthAdjust="spacing" textLength="67" x="230" y="88.292">project_id</text><ellipse cx="221" cy="101.2422" fill="#000000" rx="3" ry="3" style="stroke:#000000;stroke-width:1.0;"/><text fill="#000000" font-family="sans-serif" font-size="14" lengthAdjust="spacing" textLength="73" x="230" y="104.5889">created_at</text><ellipse cx="221" cy="117.5391" fill="#000000" rx="3" ry="3" style="stroke:#000000;stroke-width:1.0;"/><text fill="#000000" font-family="sans-serif" font-size="14" lengthAdjust="spacing" textLength="78" x="230" y="120.8857">updated_at</text></g><!--class Memo--><g id="elem_Memo"><rect codeLine="13" fill="#F1F1F1" height="121.4844" id="Memo" rx="2.5" ry="2.5" style="stroke:#181818;stroke-width:0.5;" width="104" x="411" y="7"/><ellipse cx="439.05" cy="23" fill="#ADD1B2" rx="11" ry="11" style="stroke:#181818;stroke-width:1.0;"/><path d="M442.0188,28.6406 Q441.4406,28.9375 440.8,29.0781 Q440.1594,29.2344 439.4563,29.2344 Q436.9563,29.2344 435.6281,27.5938 Q434.3156,25.9375 434.3156,22.8125 Q434.3156,19.6875 435.6281,18.0313 Q436.9563,16.375 439.4563,16.375 Q440.1594,16.375 440.8,16.5313 Q441.4563,16.6875 442.0188,16.9844 L442.0188,19.7031 Q441.3938,19.125 440.8,18.8594 Q440.2063,18.5781 439.5813,18.5781 Q438.2375,18.5781 437.55,19.6563 Q436.8625,20.7188 436.8625,22.8125 Q436.8625,24.9063 437.55,25.9844 Q438.2375,27.0469 439.5813,27.0469 Q440.2063,27.0469 440.8,26.7813 Q441.3938,26.5 442.0188,25.9219 L442.0188,28.6406 Z " fill="#000000"/><text fill="#000000" font-family="sans-serif" font-size="14" lengthAdjust="spacing" textLength="43" x="455.95" y="27.8467">Memo</text><line style="stroke:#181818;stroke-width:0.5;" x1="412" x2="514" y1="39" y2="39"/><polygon fill="none" points="422,48.6484,418,54.6484,426,54.6484" style="stroke:#1963A0;stroke-width:1.0;"/><text fill="#000000" font-family="sans-serif" font-size="14" lengthAdjust="spacing" textLength="12" x="431" y="55.9951">id</text><ellipse cx="422" cy="68.9453" fill="none" rx="3" ry="3" style="stroke:#038048;stroke-width:1.0;"/><text fill="#000000" font-family="sans-serif" font-size="14" lengthAdjust="spacing" textLength="54" x="431" y="72.292">page_id</text><ellipse cx="422" cy="85.2422" fill="#000000" rx="3" ry="3" style="stroke:#000000;stroke-width:1.0;"/><text fill="#000000" font-family="sans-serif" font-size="14" lengthAdjust="spacing" textLength="54" x="431" y="88.5889">content</text><ellipse cx="422" cy="101.5391" fill="#000000" rx="3" ry="3" style="stroke:#000000;stroke-width:1.0;"/><text fill="#000000" font-family="sans-serif" font-size="14" lengthAdjust="spacing" textLength="73" x="431" y="104.8857">created_at</text><ellipse cx="422" cy="117.8359" fill="#000000" rx="3" ry="3" style="stroke:#000000;stroke-width:1.0;"/><text fill="#000000" font-family="sans-serif" font-size="14" lengthAdjust="spacing" textLength="78" x="431" y="121.1826">updated_at</text></g><!--class Hoofprint--><g id="elem_Hoofprint"><rect codeLine="20" fill="#F1F1F1" height="105.1875" id="Hoofprint" rx="2.5" ry="2.5" style="stroke:#181818;stroke-width:0.5;" width="146" x="189" y="171"/><ellipse cx="226.95" cy="187" fill="#ADD1B2" rx="11" ry="11" style="stroke:#181818;stroke-width:1.0;"/><path d="M229.9188,192.6406 Q229.3406,192.9375 228.7,193.0781 Q228.0594,193.2344 227.3563,193.2344 Q224.8563,193.2344 223.5281,191.5938 Q222.2156,189.9375 222.2156,186.8125 Q222.2156,183.6875 223.5281,182.0313 Q224.8563,180.375 227.3563,180.375 Q228.0594,180.375 228.7,180.5313 Q229.3563,180.6875 229.9188,180.9844 L229.9188,183.7031 Q229.2938,183.125 228.7,182.8594 Q228.1063,182.5781 227.4813,182.5781 Q226.1375,182.5781 225.45,183.6563 Q224.7625,184.7188 224.7625,186.8125 Q224.7625,188.9063 225.45,189.9844 Q226.1375,191.0469 227.4813,191.0469 Q228.1063,191.0469 228.7,190.7813 Q229.2938,190.5 229.9188,189.9219 L229.9188,192.6406 Z " fill="#000000"/><text fill="#000000" font-family="sans-serif" font-size="14" lengthAdjust="spacing" textLength="63" x="246.05" y="191.8467">Hoofprint</text><line style="stroke:#181818;stroke-width:0.5;" x1="190" x2="334" y1="203" y2="203"/><polygon fill="none" points="200,212.6484,196,218.6484,204,218.6484" style="stroke:#1963A0;stroke-width:1.0;"/><text fill="#000000" font-family="sans-serif" font-size="14" lengthAdjust="spacing" textLength="12" x="209" y="219.9951">id</text><ellipse cx="200" cy="232.9453" fill="none" rx="3" ry="3" style="stroke:#038048;stroke-width:1.0;"/><text fill="#000000" font-family="sans-serif" font-size="14" lengthAdjust="spacing" textLength="67" x="209" y="236.292">project_id</text><rect fill="none" height="6" style="stroke:#C82930;stroke-width:1.0;" width="6" x="197" y="246.2422"/><text fill="#000000" font-family="sans-serif" font-size="14" lengthAdjust="spacing" textLength="31" x="209" y="252.5889">date</text><ellipse cx="200" cy="265.5391" fill="#000000" rx="3" ry="3" style="stroke:#000000;stroke-width:1.0;"/><text fill="#000000" font-family="sans-serif" font-size="14" lengthAdjust="spacing" textLength="120" x="209" y="268.8857">running_seconds</text></g><!--class Runner--><g id="elem_Runner"><rect codeLine="26" fill="#F1F1F1" height="88.8906" id="Runner" rx="2.5" ry="2.5" style="stroke:#181818;stroke-width:0.5;" width="93" x="215.5" y="319.5"/><ellipse cx="235" cy="335.5" fill="#ADD1B2" rx="11" ry="11" style="stroke:#181818;stroke-width:1.0;"/><path d="M237.9688,341.1406 Q237.3906,341.4375 236.75,341.5781 Q236.1094,341.7344 235.4063,341.7344 Q232.9063,341.7344 231.5781,340.0938 Q230.2656,338.4375 230.2656,335.3125 Q230.2656,332.1875 231.5781,330.5313 Q232.9063,328.875 235.4063,328.875 Q236.1094,328.875 236.75,329.0313 Q237.4063,329.1875 237.9688,329.4844 L237.9688,332.2031 Q237.3438,331.625 236.75,331.3594 Q236.1563,331.0781 235.5313,331.0781 Q234.1875,331.0781 233.5,332.1563 Q232.8125,333.2188 232.8125,335.3125 Q232.8125,337.4063 233.5,338.4844 Q234.1875,339.5469 235.5313,339.5469 Q236.1563,339.5469 236.75,339.2813 Q237.3438,339 237.9688,338.4219 L237.9688,341.1406 Z " fill="#000000"/><text fill="#000000" font-family="sans-serif" font-size="14" lengthAdjust="spacing" textLength="51" x="250" y="340.3467">Runner</text><line style="stroke:#181818;stroke-width:0.5;" x1="216.5" x2="307.5" y1="351.5" y2="351.5"/><polygon fill="none" points="226.5,361.1484,222.5,367.1484,230.5,367.1484" style="stroke:#1963A0;stroke-width:1.0;"/><text fill="#000000" font-family="sans-serif" font-size="14" lengthAdjust="spacing" textLength="12" x="235.5" y="368.4951">id</text><ellipse cx="226.5" cy="381.4453" fill="none" rx="3" ry="3" style="stroke:#038048;stroke-width:1.0;"/><text fill="#000000" font-family="sans-serif" font-size="14" lengthAdjust="spacing" textLength="67" x="235.5" y="384.792">project_id</text><ellipse cx="226.5" cy="397.7422" fill="#000000" rx="3" ry="3" style="stroke:#000000;stroke-width:1.0;"/><text fill="#000000" font-family="sans-serif" font-size="14" lengthAdjust="spacing" textLength="31" x="235.5" y="401.0889">path</text></g><!--link Project to Page--><g id="link_Project_Page"><path codeLine="35" d="M114,231.5 C192.16,231.5 122.84,83.5 201,83.5 " fill="none" id="Project-to-Page" style="stroke:#181818;stroke-width:1.0;"/><line style="stroke:#181818;stroke-width:1.0;" x1="201" x2="209" y1="83.5" y2="75.5"/><line style="stroke:#181818;stroke-width:1.0;" x1="201" x2="209" y1="83.5" y2="91.5"/><line style="stroke:#181818;stroke-width:1.0;" x1="201" x2="209" y1="83.5" y2="83.5"/></g><!--link Page to Memo--><g id="link_Page_Memo"><path codeLine="36" d="M315,66.5 C357.22,66.5 359.78,66.5 402,66.5 " fill="none" id="Page-to-Memo" style="stroke:#181818;stroke-width:1.0;"/><line style="stroke:#181818;stroke-width:1.0;" x1="402" x2="410" y1="66.5" y2="58.5"/><line style="stroke:#181818;stroke-width:1.0;" x1="402" x2="410" y1="66.5" y2="74.5"/><line style="stroke:#181818;stroke-width:1.0;" x1="402" x2="410" y1="66.5" y2="66.5"/></g><!--link Project to Hoofprint--><g id="link_Project_Hoofprint"><path codeLine="37" d="M114,231.5 C146.89,231.5 147.11,231.5 180,231.5 " fill="none" id="Project-to-Hoofprint" style="stroke:#181818;stroke-width:1.0;"/><line style="stroke:#181818;stroke-width:1.0;" x1="180" x2="188" y1="231.5" y2="223.5"/><line style="stroke:#181818;stroke-width:1.0;" x1="180" x2="188" y1="231.5" y2="239.5"/><line style="stroke:#181818;stroke-width:1.0;" x1="180" x2="188" y1="231.5" y2="231.5"/></g><!--link Project to Runner--><g id="link_Project_Runner"><path codeLine="38" d="M114,231.5 C193.39,231.5 126.61,379.5 206,379.5 " fill="none" id="Project-to-Runner" style="stroke:#181818;stroke-width:1.0;"/><line style="stroke:#181818;stroke-width:1.0;" x1="206" x2="214" y1="379.5" y2="371.5"/><line style="stroke:#181818;stroke-width:1.0;" x1="206" x2="214" y1="379.5" y2="387.5"/><line style="stroke:#181818;stroke-width:1.0;" x1="206" x2="214" y1="379.5" y2="379.5"/></g><!--SRC=[ZP113eCW44Ntd6BMRRm09-YcITCB60AZq2WG65UcFNj7jCQwi6K3C_p_OBxkLCvmI-61cc0K02zmXhSJUDLZEUY4Yj3KYaevHFCfdqBFVjNYrdo6E1FhXVKRSSK-x10CNVt14thwatK9eOd9UJhuKmMJhH3IuBtpRPsHdp5vnTovZ-bmhgZ8ibvOPn1w91lOts53G06IQos1SOaDBdWXbfYbT0QgQYonIRb1pWs-vJK9fb1Oi0InjwzZVZDsgdcAhUGD]--></g></svg>