<?xml version="1.0" encoding="us-ascii" standalone="no"?><svg xmlns="http://www.w3.org/2000/svg" xmlns:xlink="http://www.w3.org/1999/xlink" contentStyleType="text/css" height="415px" preserveAspectRatio="none" style="width:480px;height:415px;background:#FFFFFF;" version="1.1" viewBox="0 0 480 415" width="480px" zoomAndPan="magnify"><defs/><g><!--class Project--><g id="elem_Project"><rect codeLine="1" fill="#F1F1F1" height="105.1875" id="Project" rx="2.5" ry="2.5" style="stroke:#181818;stroke-width:0.5;" width="104" x="9" y="188"/><ellipse cx="34.8" cy="204" fill="#ADD1B2" rx="11" ry="11" style="stroke:#181818;stroke-width:1.0;"/><path d="M37.7688,209.6406 Q37.1906,209.9375 36.55,210.0781 Q35.9094,210.2344 35.2063,210.2344 Q32.7063,210.2344 31.3781,208.5938 Q30.0656,206.9375 30.0656,203.8125 Q30.0656,200.6875 31.3781,199.0313 Q32.7063,197.375 35.2063,197.375 Q35.9094,197.375 36.55,197.5313 Q37.2063,197.6875 37.7688,197.9844 L37.7688,200.7031 Q37.1438,200.125 36.55,199.8594 Q35.9563,199.5781 35.3313,199.5781 Q33.9875,199.5781 33.3,200.6563 Q32.6125,201.7188 32.6125,203.8125 Q32.6125,205.9063 33.3,206.9844 Q33.9875,208.0469 35.3313,208.0469 Q35.9563,208.0469 36.55,207.7813 Q37.1438,207.5 37.7688,206.9219 L37.7688,209.6406 Z " fill="#000000"/><text fill="#000000" font-family="sans-serif" font-size="14" lengthAdjust="spacing" textLength="48" x="51.2" y="208.8467">Project</text><line style="stroke:#181818;stroke-width:0.5;" x1="10" x2="112" y1="220" y2="220"/><polygon fill="none" points="20,229.6484,16,235.6484,24,235.6484" style="stroke:#1963A0;stroke-width:1.0;"/><text fill="#000000" font-family="sans-serif" font-size="14" lengthAdjust="spacing" textLength="12" x="29" y="236.9951">id</text><ellipse cx="20" cy="249.9453" fill="#000000" rx="3" ry="3" style="stroke:#000000;stroke-width:1.0;"/><text fill="#000000" font-family="sans-serif" font-size="14" lengthAdjust="spacing" textLength="39" x="29" y="253.292">name</text><ellipse cx="20" cy="266.2422" fill="#000000" rx="3" ry="3" style="stroke:#000000;stroke-width:1.0;"/><text fill="#000000" font-family="sans-serif" font-size="14" lengthAdjust="spacing" textLength="73" x="29" y="269.5889">created_at</text><ellipse cx="20" cy="282.5391" fill="#000000" rx="3" ry="3" style="stroke:#000000;stroke-width:1.0;"/><text fill="#000000" font-family="sans-serif" font-size="14" lengthAdjust="spacing" textLength="78" x="29" y="285.8857">updated_at</text></g><!--class Page--><g id="elem_Page"><rect codeLine="7" fill="#F1F1F1" height="105.1875" id="Page" rx="2.5" ry="2.5" style="stroke:#181818;stroke-width:0.5;" width="104" x="189" y="23"/><ellipse cx="220.65" cy="39" fill="#ADD1B2" rx="11" ry="11" style="stroke:#181818;stroke-width:1.0;"/><path d="M223.6188,44.6406 Q223.0406,44.9375 222.4,45.0781 Q221.7594,45.2344 221.0563,45.2344 Q218.5563,45.2344 217.2281,43.5938 Q215.9156,41.9375 215.9156,38.8125 Q215.9156,35.6875 217.2281,34.0313 Q218.5563,32.375 221.0563,32.375 Q221.7594,32.375 222.4,32.5313 Q223.0563,32.6875 223.6188,32.9844 L223.6188,35.7031 Q222.9938,35.125 222.4,34.8594 Q221.8063,34.5781 221.1813,34.5781 Q219.8375,34.5781 219.15,35.6563 Q218.4625,36.7188 218.4625,38.8125 Q218.4625,40.9063 219.15,41.9844 Q219.8375,43.0469 221.1813,43.0469 Q221.8063,43.0469 222.4,42.7813 Q222.9938,42.5 223.6188,41.9219 L223.6188,44.6406 Z " fill="#000000"/><text fill="#000000" font-family="sans-serif" font-size="14" lengthAdjust="spacing" textLength="35" x="238.35" y="43.8467">Page</text><line style="stroke:#181818;stroke-width:0.5;" x1="190" x2="292" y1="55" y2="55"/><polygon fill="none" points="200,64.6484,196,70.6484,204,70.6484" style="stroke:#1963A0;stroke-width:1.0;"/><text fill="#000000" font-family="sans-serif" font-size="14" lengthAdjust="spacing" textLength="12" x="209" y="71.9951">id</text><ellipse cx="200" cy="84.9453" fill="none" rx="3" ry="3" style="stroke:#038048;stroke-width:1.0;"/><text fill="#000000" font-family="sans-serif" font-size="14" lengthAdjust="spacing" textLength="67" x="209" y="88.292">project_id</text><ellipse cx="200" cy="101.2422" fill="#000000" rx="3" ry="3" style="stroke:#000000;stroke-width:1.0;"/><text fill="#000000" font-family="sans-serif" font-size="14" lengthAdjust="spacing" textLength="73" x="209" y="104.5889">created_at</text><ellipse cx="200" cy="117.5391" fill="#000000" rx="3" ry="3" style="stroke:#000000;stroke-width:1.0;"/><text fill="#000000" font-family="sans-serif" font-size="14" lengthAdjust="spacing" textLength="78" x="209" y="120.8857">updated_at</text></g><!--class Memo--><g id="elem_Memo"><rect codeLine="13" fill="#F1F1F1" height="121.4844" id="Memo" rx="2.5" ry="2.5" style="stroke:#181818;stroke-width:0.5;" width="104" x="369" y="7"/><ellipse cx="397.05" cy="23" fill="#ADD1B2" rx="11" ry="11" style="stroke:#181818;stroke-width:1.0;"/><path d="M400.0188,28.6406 Q399.4406,28.9375 398.8,29.0781 Q398.1594,29.2344 397.4563,29.2344 Q394.9563,29.2344 393.6281,27.5938 Q392.3156,25.9375 392.3156,22.8125 Q392.3156,19.6875 393.6281,18.0313 Q394.9563,16.375 397.4563,16.375 Q398.1594,16.375 398.8,16.5313 Q399.4563,16.6875 400.0188,16.9844 L400.0188,19.7031 Q399.3938,19.125 398.8,18.8594 Q398.2063,18.5781 397.5813,18.5781 Q396.2375,18.5781 395.55,19.6563 Q394.8625,20.7188 394.8625,22.8125 Q394.8625,24.9063 395.55,25.9844 Q396.2375,27.0469 397.5813,27.0469 Q398.2063,27.0469 398.8,26.7813 Q399.3938,26.5 400.0188,25.9219 L400.0188,28.6406 Z " fill="#000000"/><text fill="#000000" font-family="sans-serif" font-size="14" lengthAdjust="spacing" textLength="43" x="413.95" y="27.8467">Memo</text><line style="stroke:#181818;stroke-width:0.5;" x1="370" x2="472" y1="39" y2="39"/><polygon fill="none" points="380,48.6484,376,54.6484,384,54.6484" style="stroke:#1963A0;stroke-width:1.0;"/><text fill="#000000" font-family="sans-serif" font-size="14" lengthAdjust="spacing" textLength="12" x="389" y="55.9951">id</text><ellipse cx="380" cy="68.9453" fill="none" rx="3" ry="3" style="stroke:#038048;stroke-width:1.0;"/><text fill="#000000" font-family="sans-serif" font-size="14" lengthAdjust="spacing" textLength="54" x="389" y="72.292">page_id</text><ellipse cx="380" cy="85.2422" fill="#000000" rx="3" ry="3" style="stroke:#000000;stroke-width:1.0;"/><text fill="#000000" font-family="sans-serif" font-size="14" lengthAdjust="spacing" textLength="54" x="389" y="88.5889">content</text><ellipse cx="380" cy="101.5391" fill="#000000" rx="3" ry="3" style="stroke:#000000;stroke-width:1.0;"/><text fill="#000000" font-family="sans-serif" font-size="14" lengthAdjust="spacing" textLength="73" x="389" y="104.8857">created_at</text><ellipse cx="380" cy="117.8359" fill="#000000" rx="3" ry="3" style="stroke:#000000;stroke-width:1.0;"/><text fill="#000000" font-family="sans-serif" font-size="14" lengthAdjust="spacing" textLength="78" x="389" y="121.1826">updated_at</text></g><!--class Hoofprint--><g id="elem_Hoofprint"><rect codeLine="20" fill="#F1F1F1" height="105.1875" id="Hoofprint" rx="2.5" ry="2.5" style="stroke:#181818;stroke-width:0.5;" width="95" x="193.5" y="171"/><ellipse cx="208.5" cy="187" fill="#ADD1B2" rx="11" ry="11" style="stroke:#181818;stroke-width:1.0;"/><path d="M211.4688,192.6406 Q210.8906,192.9375 210.25,193.0781 Q209.6094,193.2344 208.9063,193.2344 Q206.4063,193.2344 205.0781,191.5938 Q203.7656,189.9375 203.7656,186.8125 Q203.7656,183.6875 205.0781,182.0313 Q206.4063,180.375 208.9063,180.375 Q209.6094,180.375 210.25,180.5313 Q210.9063,180.6875 211.4688,180.9844 L211.4688,183.7031 Q210.8438,183.125 210.25,182.8594 Q209.6563,182.5781 209.0313,182.5781 Q207.6875,182.5781 207,183.6563 Q206.3125,184.7188 206.3125,186.8125 Q206.3125,188.9063 207,189.9844 Q207.6875,191.0469 209.0313,191.0469 Q209.6563,191.0469 210.25,190.7813 Q210.8438,190.5 211.4688,189.9219 L211.4688,192.6406 Z " fill="#000000"/><text fill="#000000" font-family="sans-serif" font-size="14" lengthAdjust="spacing" textLength="63" x="222.5" y="191.8467">Hoofprint</text><line style="stroke:#181818;stroke-width:0.5;" x1="194.5" x2="287.5" y1="203" y2="203"/><polygon fill="none" points="204.5,212.6484,200.5,218.6484,208.5,218.6484" style="stroke:#1963A0;stroke-width:1.0;"/><text fill="#000000" font-family="sans-serif" font-size="14" lengthAdjust="spacing" textLength="12" x="213.5" y="219.9951">id</text><ellipse cx="204.5" cy="232.9453" fill="none" rx="3" ry="3" style="stroke:#038048;stroke-width:1.0;"/><text fill="#000000" font-family="sans-serif" font-size="14" lengthAdjust="spacing" textLength="67" x="213.5" y="236.292">project_id</text><rect fill="none" height="6" style="stroke:#C82930;stroke-width:1.0;" width="6" x="201.5" y="246.2422"/><text fill="#000000" font-family="sans-serif" font-size="14" lengthAdjust="spacing" textLength="31" x="213.5" y="252.5889">date</text><ellipse cx="204.5" cy="265.5391" fill="#000000" rx="3" ry="3" style="stroke:#000000;stroke-width:1.0;"/><text fill="#000000" font-family="sans-serif" font-size="14" lengthAdjust="spacing" textLength="57" x="213.5" y="268.8857">duration</text></g><!--class File--><g id="elem_File"><rect codeLine="26" fill="#F1F1F1" height="88.8906" id="File" rx="2.5" ry="2.5" style="stroke:#181818;stroke-width:0.5;" width="93" x="194.5" y="319.5"/><ellipse cx="226.6" cy="335.5" fill="#ADD1B2" rx="11" ry="11" style="stroke:#181818;stroke-width:1.0;"/><path d="M229.5688,341.1406 Q228.9906,341.4375 228.35,341.5781 Q227.7094,341.7344 227.0063,341.7344 Q224.5063,341.7344 223.1781,340.0938 Q221.8656,338.4375 221.8656,335.3125 Q221.8656,332.1875 223.1781,330.5313 Q224.5063,328.875 227.0063,328.875 Q227.7094,328.875 228.35,329.0313 Q229.0063,329.1875 229.5688,329.4844 L229.5688,332.2031 Q228.9438,331.625 228.35,331.3594 Q227.7563,331.0781 227.1313,331.0781 Q225.7875,331.0781 225.1,332.1563 Q224.4125,333.2188 224.4125,335.3125 Q224.4125,337.4063 225.1,338.4844 Q225.7875,339.5469 227.1313,339.5469 Q227.7563,339.5469 228.35,339.2813 Q228.9438,339 229.5688,338.4219 L229.5688,341.1406 Z " fill="#000000"/><text fill="#000000" font-family="sans-serif" font-size="14" lengthAdjust="spacing" textLength="23" x="244.4" y="340.3467">File</text><line style="stroke:#181818;stroke-width:0.5;" x1="195.5" x2="286.5" y1="351.5" y2="351.5"/><polygon fill="none" points="205.5,361.1484,201.5,367.1484,209.5,367.1484" style="stroke:#1963A0;stroke-width:1.0;"/><text fill="#000000" font-family="sans-serif" font-size="14" lengthAdjust="spacing" textLength="12" x="214.5" y="368.4951">id</text><ellipse cx="205.5" cy="381.4453" fill="none" rx="3" ry="3" style="stroke:#038048;stroke-width:1.0;"/><text fill="#000000" font-family="sans-serif" font-size="14" lengthAdjust="spacing" textLength="67" x="214.5" y="384.792">project_id</text><ellipse cx="205.5" cy="397.7422" fill="#000000" rx="3" ry="3" style="stroke:#000000;stroke-width:1.0;"/><text fill="#000000" font-family="sans-serif" font-size="14" lengthAdjust="spacing" textLength="31" x="214.5" y="401.0889">path</text></g><!--link Project to Page--><g id="link_Project_Page"><path codeLine="35" d="M114,231.5 C187.54,231.5 106.46,83.5 180,83.5 " fill="none" id="Project-to-Page" style="stroke:#181818;stroke-width:1.0;"/><line style="stroke:#181818;stroke-width:1.0;" x1="180" x2="188" y1="83.5" y2="75.5"/><line style="stroke:#181818;stroke-width:1.0;" x1="180" x2="188" y1="83.5" y2="91.5"/><line style="stroke:#181818;stroke-width:1.0;" x1="180" x2="188" y1="83.5" y2="83.5"/></g><!--link Page to Memo--><g id="link_Page_Memo"><path codeLine="36" d="M294,66.5 C326.89,66.5 327.11,66.5 360,66.5 " fill="none" id="Page-to-Memo" style="stroke:#181818;stroke-width:1.0;"/><line style="stroke:#181818;stroke-width:1.0;" x1="360" x2="368" y1="66.5" y2="58.5"/><line style="stroke:#181818;stroke-width:1.0;" x1="360" x2="368" y1="66.5" y2="74.5"/><line style="stroke:#181818;stroke-width:1.0;" x1="360" x2="368" y1="66.5" y2="66.5"/></g><!--link Project to Hoofprint--><g id="link_Project_Hoofprint"><path codeLine="37" d="M114,231.5 C148.67,231.5 149.33,231.5 184,231.5 " fill="none" id="Project-to-Hoofprint" style="stroke:#181818;stroke-width:1.0;"/><line style="stroke:#181818;stroke-width:1.0;" x1="184" x2="192" y1="231.5" y2="223.5"/><line style="stroke:#181818;stroke-width:1.0;" x1="184" x2="192" y1="231.5" y2="239.5"/><line style="stroke:#181818;stroke-width:1.0;" x1="184" x2="192" y1="231.5" y2="231.5"/></g><!--link Project to File--><g id="link_Project_File"><path codeLine="38" d="M114,231.5 C188.56,231.5 110.44,379.5 185,379.5 " fill="none" id="Project-to-File" style="stroke:#181818;stroke-width:1.0;"/><line style="stroke:#181818;stroke-width:1.0;" x1="185" x2="193" y1="379.5" y2="371.5"/><line style="stroke:#181818;stroke-width:1.0;" x1="185" x2="193" y1="379.5" y2="387.5"/><line style="stroke:#181818;stroke-width:1.0;" x1="185" x2="193" y1="379.5" y2="379.5"/></g><!--SRC=[ZP113eCW44Ntd6BMRRm01sYwQT8R60AZq2X3S5oPzkm5jCQwi6K30_-_yB_kr330FT83DSCa05xWJDfEu5MFvQ0ZAaPJAoxZ6CndV0ez-rMBM_CPmaoi5zPln0rxsY4ITFMJP_Jy9-jAr8JeF1_ygO9iAmGpHiME_Eg_kEuuJb1iarfOPn1wP4jc41qs34mGNMiPZ8l9aAbYQLTAPw2gfjAMb1laV95Uqyg2t4KIBFdtzZNTDsEdoXcsWZS0]--></g></svg>