<?xml version="1.0" encoding="us-ascii" standalone="no"?><svg xmlns="http://www.w3.org/2000/svg" xmlns:xlink="http://www.w3.org/1999/xlink" contentStyleType="text/css" height="417px" preserveAspectRatio="none" style="width:651px;height:417px;background:#FFFFFF;" version="1.1" viewBox="0 0 651 417" width="651px" zoomAndPan="magnify"><defs/><g><!--cluster projects--><g id="cluster_projects"><path d="M65.5,51.54 L238.5,51.54 A12.5,12.5 0 0 1 251,64.04 L251,72.8369 L53,72.8369 L53,64.04 A12.5,12.5 0 0 1 65.5,51.54 " fill="#F1F1F1" style="stroke:#F1F1F1;stroke-width:1.0;"/><rect fill="none" height="173.14" rx="12.5" ry="12.5" style="stroke:#181818;stroke-width:0.5;" width="198" x="53" y="51.54"/><line style="stroke:#181818;stroke-width:0.5;" x1="53" x2="251" y1="72.8369" y2="72.8369"/><text fill="#000000" font-family="sans-serif" font-size="14" lengthAdjust="spacing" textLength="56" x="124" y="68.5351">projects</text></g><!--cluster project--><g id="cluster_project"><path d="M342.5,65.61 L625.5,65.61 A12.5,12.5 0 0 1 638,78.11 L638,105.8756 L330,105.8756 L330,78.11 A12.5,12.5 0 0 1 342.5,65.61 " fill="#F1F1F1" style="stroke:#F1F1F1;stroke-width:1.0;"/><rect fill="none" height="346.24" rx="12.5" ry="12.5" style="stroke:#181818;stroke-width:0.5;" width="308" x="330" y="65.61"/><line style="stroke:#181818;stroke-width:0.5;" x1="330" x2="638" y1="105.8756" y2="105.8756"/><line style="stroke:#181818;stroke-width:0.5;" x1="330" x2="638" y1="86.9069" y2="86.9069"/><text fill="#000000" font-family="sans-serif" font-size="14" lengthAdjust="spacing" textLength="48" x="429.5" y="82.6051">project</text><ellipse cx="340.5" cy="95.8756" fill="#000000" rx="2.5" ry="2.5" style="stroke:#000000;stroke-width:0.0;"/><text fill="#000000" font-family="sans-serif" font-size="12" lengthAdjust="spacing" textLength="97" x="347" y="100.5455">Daily hoofprints</text></g><g id="projects.project_partial"><rect fill="#F1F1F1" height="106.1406" rx="12.5" ry="12.5" style="stroke:#181818;stroke-width:0.5;" width="131" x="96.5" y="94.54"/><line style="stroke:#181818;stroke-width:0.5;" x1="96.5" x2="227.5" y1="120.8369" y2="120.8369"/><text fill="#000000" font-family="sans-serif" font-size="14" lengthAdjust="spacing" textLength="48" x="138" y="112.5351">Project</text><text fill="#000000" font-family="sans-serif" font-size="12" lengthAdjust="spacing" textLength="43" x="101.5" y="136.9755">&lt;info&gt;</text><ellipse cx="107" cy="146.2744" fill="#000000" rx="2.5" ry="2.5" style="stroke:#000000;stroke-width:0.0;"/><text fill="#000000" font-family="sans-serif" font-size="12" lengthAdjust="spacing" textLength="35" x="113.5" y="150.9443">name</text><ellipse cx="107" cy="160.2431" fill="#000000" rx="2.5" ry="2.5" style="stroke:#000000;stroke-width:0.0;"/><text fill="#000000" font-family="sans-serif" font-size="12" lengthAdjust="spacing" textLength="99" x="113.5" y="164.913">hoofprint_count</text><ellipse cx="107" cy="174.2119" fill="#000000" rx="2.5" ry="2.5" style="stroke:#000000;stroke-width:0.0;"/><text fill="#000000" font-family="sans-serif" font-size="12" lengthAdjust="spacing" textLength="72" x="113.5" y="178.8818">updated_at</text><ellipse cx="107" cy="188.1806" fill="#000000" rx="2.5" ry="2.5" style="stroke:#000000;stroke-width:0.0;"/><text fill="#000000" font-family="sans-serif" font-size="12" lengthAdjust="spacing" textLength="52" x="113.5" y="192.8505">[Button]</text></g><rect fill="#F1F1F1" height="40" rx="12.5" ry="12.5" style="stroke:#181818;stroke-width:0.5;" width="104" x="510" y="127.61"/><text fill="#000000" font-family="sans-serif" font-size="14" lengthAdjust="spacing" textLength="94" x="515" y="152.4567">[Back] button</text><rect fill="#F1F1F1" height="40" rx="12.5" ry="12.5" style="stroke:#181818;stroke-width:0.5;" width="102" x="373" y="127.61"/><text fill="#000000" font-family="sans-serif" font-size="14" lengthAdjust="spacing" textLength="92" x="378" y="152.4567">[Start] button</text><g id="project.project_hoofprint"><rect fill="#F1F1F1" height="92.1719" rx="12.5" ry="12.5" style="stroke:#181818;stroke-width:0.5;" width="120" x="373" y="295.68"/><line style="stroke:#181818;stroke-width:0.5;" x1="373" x2="493" y1="321.9769" y2="321.9769"/><text fill="#000000" font-family="sans-serif" font-size="14" lengthAdjust="spacing" textLength="63" x="401.5" y="313.6751">Hoofprint</text><text fill="#000000" font-family="sans-serif" font-size="12" lengthAdjust="spacing" textLength="58" x="378" y="338.1155">&lt;footer&gt;</text><ellipse cx="383.5" cy="347.4144" fill="#000000" rx="2.5" ry="2.5" style="stroke:#000000;stroke-width:0.0;"/><text fill="#000000" font-family="sans-serif" font-size="12" lengthAdjust="spacing" textLength="62" x="390" y="352.0843">beginning</text><ellipse cx="383.5" cy="361.3831" fill="#000000" rx="2.5" ry="2.5" style="stroke:#000000;stroke-width:0.0;"/><text fill="#000000" font-family="sans-serif" font-size="12" lengthAdjust="spacing" textLength="88" x="390" y="366.053">horse running</text><ellipse cx="383.5" cy="375.3519" fill="#000000" rx="2.5" ry="2.5" style="stroke:#000000;stroke-width:0.0;"/><text fill="#000000" font-family="sans-serif" font-size="12" lengthAdjust="spacing" textLength="27" x="390" y="380.0218">goal</text></g><g id="project.project_runners"><rect fill="#F1F1F1" height="64.2344" rx="12.5" ry="12.5" style="stroke:#181818;stroke-width:0.5;" width="83" x="528.5" y="309.65"/><line style="stroke:#181818;stroke-width:0.5;" x1="528.5" x2="611.5" y1="335.9469" y2="335.9469"/><text fill="#000000" font-family="sans-serif" font-size="14" lengthAdjust="spacing" textLength="59" x="540.5" y="327.6451">Runners</text><text fill="#000000" font-family="sans-serif" font-size="12" lengthAdjust="spacing" textLength="63" x="533.5" y="352.0855">&lt;hidden&gt;</text><ellipse cx="539" cy="361.3844" fill="#000000" rx="2.5" ry="2.5" style="stroke:#000000;stroke-width:0.0;"/><text fill="#000000" font-family="sans-serif" font-size="12" lengthAdjust="spacing" textLength="25" x="545.5" y="366.0543">files</text></g><ellipse cx="16" cy="147.61" fill="#222222" rx="10" ry="10" style="stroke:#222222;stroke-width:1.0;"/><!--link *start* to projects--><g id="link_*start*_projects"><path d="M26.2,147.61 C31.86,147.61 37.5225,147.61 43.1863,147.61 C46.0181,147.61 48.8503,147.61 51.6827,147.61 C52.0367,147.61 52.3907,147.61 52.7448,147.61 C52.789,147.61 46.8333,147.61 46.8776,147.61 " fill="none" id="*start*-to-projects" style="stroke:#181818;stroke-width:1.0;"/><polygon fill="#181818" points="52.8776,147.61,43.8776,143.61,47.8776,147.61,43.8776,151.61,52.8776,147.61" style="stroke:#181818;stroke-width:1.0;"/></g><!--link project_partial to project--><g id="link_project_partial_project"><path d="M227.79,147.61 C251.22,147.61 276.9,147.61 297.5725,147.61 C307.9088,147.61 316.9931,147.61 323.9184,147.61 C325.6498,147.61 327.2462,147.61 328.6934,147.61 C329.0552,147.61 323.4077,147.61 323.7507,147.61 " fill="none" id="project_partial-to-project" style="stroke:#181818;stroke-width:1.0;"/><polygon fill="#181818" points="329.7507,147.61,320.7507,143.61,324.7507,147.61,320.7507,151.61,329.7507,147.61" style="stroke:#181818;stroke-width:1.0;"/><text fill="#000000" font-family="sans-serif" font-size="13" lengthAdjust="spacing" textLength="74" x="245.57" y="140.6769">Button click</text></g><!--reverse link projects to project_back--><g id="link_projects_project_back"><path d="M70.7272,45.7537 C70.9011,45.3646 68.9308,49.8886 69.1102,49.5035 C69.4691,48.7332 69.8391,47.9713 70.2205,47.2183 C76.3225,35.17 85.34,25.4075 98.5,20.54 C137.79,6 436.21,6 475.5,20.54 C521.55,37.57 546.09,95.77 556.25,127.15 " fill="none" id="projects-backto-project_back" style="stroke:#181818;stroke-width:1.0;"/><polygon fill="#181818" points="68.3213,51.2502,75.5945,44.6094,70.3262,46.6698,68.2658,41.4015,68.3213,51.2502" style="stroke:#181818;stroke-width:1.0;"/></g><!--link project_start to project_hoofprint--><g id="link_project_start_project_hoofprint"><path d="M421.27,167.71 C418.36,190.92 414.59,231.25 418,265.68 C418.96,275.34 419.4751,279.6945 421.3151,289.4245 " fill="none" id="project_start-to-project_hoofprint" style="stroke:#181818;stroke-width:1.0;"/><polygon fill="#181818" points="422.43,295.32,424.688,285.7335,421.5009,290.4071,416.8273,287.22,422.43,295.32" style="stroke:#181818;stroke-width:1.0;"/><text fill="#000000" font-family="sans-serif" font-size="13" lengthAdjust="spacing" textLength="88" x="419" y="261.7469">horse running</text></g><!--link project_start to project_runners--><g id="link_project_start_project_runners"><path d="M434.33,167.92 C446.13,188.4 467.18,220.51 493,240.68 C500.22,246.32 505.01,242.75 512,248.68 C531.45,265.18 543.8115,284.5311 553.7115,304.1911 " fill="none" id="project_start-to-project_runners" style="stroke:#181818;stroke-width:1.0;"/><polygon fill="#181818" points="556.41,309.55,555.9348,299.7126,554.1612,305.0842,548.7896,303.3107,556.41,309.55" style="stroke:#181818;stroke-width:1.0;"/><text fill="#000000" font-family="sans-serif" font-size="13" lengthAdjust="spacing" textLength="61" x="529" y="261.7469">open files</text></g><!--SRC=[VLBBReGm3BpdAwmz8l43rOh3geSUg_QuGYWG0sdPE4hCORNglpT0UMG5lKKpOtl6JgiL0juitq6XhvoshCa8uLaoWdNqXHLxU0Y02JgzJzW9f9_vmah7MdP1z8J02vorgIdRfH8ZRxZFj4IrTTfmKL5lU5_KMnKigK8UyDTBpqmc5pzndZ7E_0wwLwcxEomZlLZJNY-o-iwX71j5cSj0R7IV7ERk2lt0R5g-pNCYrJ9z4sN1XZNMH8mkEw2J4XjjZ3RDaQ0bvn5S_w-eeN35rUf7KAFpaL4tOPiEVyXWijLAeSbsoQJM7Vfm2o6kIGvfjdmlyNoxbGjrqn6XwdHO-F8ZpsaQdo9QDwHhYoXXl8NZcjKsMJGmMly5]--></g></svg>